<mxfile host="app.diagrams.net" modified="2024-05-16T19:02:42.821Z" agent="Mozilla/5.0 (Windows NT 10.0; Win64; x64) AppleWebKit/537.36 (KHTML, like Gecko) Chrome/124.0.0.0 Safari/537.36 Edg/124.0.0.0" version="24.4.3" etag="asboSzVDOBkV01xgMbfC" type="github">
  <diagram name="Page-1" id="1qi6tBfn7dY0nLXvlLz4">
    <mxGraphModel>
      <root>
        <mxCell id="0" />
        <mxCell id="1" parent="0" />
      </root>
    </mxGraphModel>
  </diagram>
</mxfile>
